<mxfile host="app.diagrams.net" modified="2022-11-21T18:21:49.118Z" agent="5.0 (Windows NT 10.0; Win64; x64) AppleWebKit/537.36 (KHTML, like Gecko) Chrome/107.0.0.0 Safari/537.36" etag="Cma0FWzcz4zOiCKYnqDH" version="20.3.6" type="github">
  <diagram id="rxHPAxPZkkmusATUO-no" name="Page-1">
    <mxGraphModel dx="1038" dy="617" grid="1" gridSize="10" guides="1" tooltips="1" connect="1" arrows="1" fold="1" page="1" pageScale="1" pageWidth="850" pageHeight="1100" math="0" shadow="0">
      <root>
        <mxCell id="0" />
        <mxCell id="1" parent="0" />
        <mxCell id="7T2O_6Qfva8UN1nSJMez-40" style="edgeStyle=orthogonalEdgeStyle;rounded=0;orthogonalLoop=1;jettySize=auto;html=1;" edge="1" parent="1" source="7T2O_6Qfva8UN1nSJMez-3" target="7T2O_6Qfva8UN1nSJMez-10">
          <mxGeometry relative="1" as="geometry" />
        </mxCell>
        <mxCell id="7T2O_6Qfva8UN1nSJMez-41" style="edgeStyle=orthogonalEdgeStyle;rounded=0;orthogonalLoop=1;jettySize=auto;html=1;entryX=0.5;entryY=0;entryDx=0;entryDy=0;" edge="1" parent="1" source="7T2O_6Qfva8UN1nSJMez-3" target="7T2O_6Qfva8UN1nSJMez-9">
          <mxGeometry relative="1" as="geometry" />
        </mxCell>
        <mxCell id="7T2O_6Qfva8UN1nSJMez-3" value="Start" style="rounded=1;whiteSpace=wrap;html=1;" vertex="1" parent="1">
          <mxGeometry x="350" y="10" width="110" height="60" as="geometry" />
        </mxCell>
        <mxCell id="7T2O_6Qfva8UN1nSJMez-61" style="edgeStyle=orthogonalEdgeStyle;rounded=0;orthogonalLoop=1;jettySize=auto;html=1;entryX=1;entryY=0.5;entryDx=0;entryDy=0;" edge="1" parent="1" source="7T2O_6Qfva8UN1nSJMez-8" target="7T2O_6Qfva8UN1nSJMez-32">
          <mxGeometry relative="1" as="geometry">
            <mxPoint x="640" y="560" as="targetPoint" />
            <Array as="points">
              <mxPoint x="640" y="560" />
            </Array>
          </mxGeometry>
        </mxCell>
        <mxCell id="7T2O_6Qfva8UN1nSJMez-8" value="Keep Moving" style="whiteSpace=wrap;html=1;" vertex="1" parent="1">
          <mxGeometry x="580" y="220" width="120" height="60" as="geometry" />
        </mxCell>
        <mxCell id="7T2O_6Qfva8UN1nSJMez-43" style="edgeStyle=orthogonalEdgeStyle;rounded=0;orthogonalLoop=1;jettySize=auto;html=1;" edge="1" parent="1" source="7T2O_6Qfva8UN1nSJMez-9" target="7T2O_6Qfva8UN1nSJMez-11">
          <mxGeometry relative="1" as="geometry">
            <Array as="points">
              <mxPoint x="405" y="150" />
            </Array>
          </mxGeometry>
        </mxCell>
        <mxCell id="7T2O_6Qfva8UN1nSJMez-9" value="Sensor Data" style="rounded=1;whiteSpace=wrap;html=1;" vertex="1" parent="1">
          <mxGeometry x="160" y="125" width="120" height="60" as="geometry" />
        </mxCell>
        <mxCell id="7T2O_6Qfva8UN1nSJMez-44" style="edgeStyle=orthogonalEdgeStyle;rounded=0;orthogonalLoop=1;jettySize=auto;html=1;" edge="1" parent="1" source="7T2O_6Qfva8UN1nSJMez-10" target="7T2O_6Qfva8UN1nSJMez-11">
          <mxGeometry relative="1" as="geometry" />
        </mxCell>
        <mxCell id="7T2O_6Qfva8UN1nSJMez-10" value="Camera Data" style="rounded=1;whiteSpace=wrap;html=1;" vertex="1" parent="1">
          <mxGeometry x="530" y="120" width="120" height="60" as="geometry" />
        </mxCell>
        <mxCell id="7T2O_6Qfva8UN1nSJMez-15" style="edgeStyle=orthogonalEdgeStyle;rounded=0;orthogonalLoop=1;jettySize=auto;html=1;" edge="1" parent="1" source="7T2O_6Qfva8UN1nSJMez-11">
          <mxGeometry relative="1" as="geometry">
            <mxPoint x="570" y="250" as="targetPoint" />
          </mxGeometry>
        </mxCell>
        <mxCell id="7T2O_6Qfva8UN1nSJMez-11" value="Decision&lt;br&gt;Object Detected" style="rhombus;whiteSpace=wrap;html=1;" vertex="1" parent="1">
          <mxGeometry x="365" y="210" width="80" height="80" as="geometry" />
        </mxCell>
        <mxCell id="7T2O_6Qfva8UN1nSJMez-16" value="NO" style="text;html=1;align=center;verticalAlign=middle;resizable=0;points=[];autosize=1;strokeColor=none;fillColor=none;" vertex="1" parent="1">
          <mxGeometry x="460" y="225" width="40" height="30" as="geometry" />
        </mxCell>
        <mxCell id="7T2O_6Qfva8UN1nSJMez-20" value="YES" style="text;html=1;align=center;verticalAlign=middle;resizable=0;points=[];autosize=1;strokeColor=none;fillColor=none;" vertex="1" parent="1">
          <mxGeometry x="270" y="225" width="50" height="30" as="geometry" />
        </mxCell>
        <mxCell id="7T2O_6Qfva8UN1nSJMez-58" style="edgeStyle=orthogonalEdgeStyle;rounded=0;orthogonalLoop=1;jettySize=auto;html=1;entryX=0;entryY=0.5;entryDx=0;entryDy=0;" edge="1" parent="1" source="7T2O_6Qfva8UN1nSJMez-30" target="7T2O_6Qfva8UN1nSJMez-32">
          <mxGeometry relative="1" as="geometry" />
        </mxCell>
        <mxCell id="7T2O_6Qfva8UN1nSJMez-30" value="If no path exist or time to stop" style="rounded=1;whiteSpace=wrap;html=1;" vertex="1" parent="1">
          <mxGeometry x="87.5" y="530" width="125" height="60" as="geometry" />
        </mxCell>
        <mxCell id="7T2O_6Qfva8UN1nSJMez-32" value="End" style="ellipse;whiteSpace=wrap;html=1;" vertex="1" parent="1">
          <mxGeometry x="350.5" y="530" width="99.5" height="60" as="geometry" />
        </mxCell>
        <mxCell id="7T2O_6Qfva8UN1nSJMez-47" value="Decision&lt;br&gt;Object Detected" style="rhombus;whiteSpace=wrap;html=1;" vertex="1" parent="1">
          <mxGeometry x="365" y="210" width="80" height="80" as="geometry" />
        </mxCell>
        <mxCell id="7T2O_6Qfva8UN1nSJMez-54" style="edgeStyle=orthogonalEdgeStyle;rounded=0;orthogonalLoop=1;jettySize=auto;html=1;entryX=0.5;entryY=0;entryDx=0;entryDy=0;" edge="1" parent="1" source="7T2O_6Qfva8UN1nSJMez-49" target="7T2O_6Qfva8UN1nSJMez-51">
          <mxGeometry relative="1" as="geometry" />
        </mxCell>
        <mxCell id="7T2O_6Qfva8UN1nSJMez-60" style="edgeStyle=orthogonalEdgeStyle;rounded=0;orthogonalLoop=1;jettySize=auto;html=1;entryX=0.5;entryY=0;entryDx=0;entryDy=0;" edge="1" parent="1" source="7T2O_6Qfva8UN1nSJMez-49" target="7T2O_6Qfva8UN1nSJMez-53">
          <mxGeometry relative="1" as="geometry" />
        </mxCell>
        <mxCell id="7T2O_6Qfva8UN1nSJMez-49" value="Decision&lt;br&gt;Object Detected" style="rhombus;whiteSpace=wrap;html=1;" vertex="1" parent="1">
          <mxGeometry x="365" y="210" width="80" height="80" as="geometry" />
        </mxCell>
        <mxCell id="7T2O_6Qfva8UN1nSJMez-55" style="edgeStyle=orthogonalEdgeStyle;rounded=0;orthogonalLoop=1;jettySize=auto;html=1;entryX=0.5;entryY=0;entryDx=0;entryDy=0;" edge="1" parent="1" source="7T2O_6Qfva8UN1nSJMez-51" target="7T2O_6Qfva8UN1nSJMez-52">
          <mxGeometry relative="1" as="geometry">
            <mxPoint x="150" y="410" as="targetPoint" />
          </mxGeometry>
        </mxCell>
        <mxCell id="7T2O_6Qfva8UN1nSJMez-51" value="Object Detection" style="rounded=1;whiteSpace=wrap;html=1;" vertex="1" parent="1">
          <mxGeometry x="90" y="340" width="120" height="50" as="geometry" />
        </mxCell>
        <mxCell id="7T2O_6Qfva8UN1nSJMez-56" style="edgeStyle=orthogonalEdgeStyle;rounded=0;orthogonalLoop=1;jettySize=auto;html=1;entryX=0.5;entryY=0;entryDx=0;entryDy=0;" edge="1" parent="1" source="7T2O_6Qfva8UN1nSJMez-52" target="7T2O_6Qfva8UN1nSJMez-30">
          <mxGeometry relative="1" as="geometry" />
        </mxCell>
        <mxCell id="7T2O_6Qfva8UN1nSJMez-62" style="edgeStyle=orthogonalEdgeStyle;rounded=0;orthogonalLoop=1;jettySize=auto;html=1;" edge="1" parent="1" source="7T2O_6Qfva8UN1nSJMez-52" target="7T2O_6Qfva8UN1nSJMez-49">
          <mxGeometry relative="1" as="geometry">
            <mxPoint x="290" y="280" as="targetPoint" />
            <Array as="points">
              <mxPoint x="290" y="460" />
              <mxPoint x="290" y="280" />
            </Array>
          </mxGeometry>
        </mxCell>
        <mxCell id="7T2O_6Qfva8UN1nSJMez-52" value="Search for another path" style="rounded=1;whiteSpace=wrap;html=1;" vertex="1" parent="1">
          <mxGeometry x="90" y="430" width="120" height="60" as="geometry" />
        </mxCell>
        <mxCell id="7T2O_6Qfva8UN1nSJMez-65" style="edgeStyle=orthogonalEdgeStyle;rounded=0;orthogonalLoop=1;jettySize=auto;html=1;exitX=0.5;exitY=1;exitDx=0;exitDy=0;entryX=0.5;entryY=0;entryDx=0;entryDy=0;" edge="1" parent="1" source="7T2O_6Qfva8UN1nSJMez-53" target="7T2O_6Qfva8UN1nSJMez-64">
          <mxGeometry relative="1" as="geometry" />
        </mxCell>
        <mxCell id="7T2O_6Qfva8UN1nSJMez-53" value="Traffic Signs Detection" style="rounded=1;whiteSpace=wrap;html=1;" vertex="1" parent="1">
          <mxGeometry x="345" y="330" width="120" height="60" as="geometry" />
        </mxCell>
        <mxCell id="7T2O_6Qfva8UN1nSJMez-66" style="edgeStyle=orthogonalEdgeStyle;rounded=0;orthogonalLoop=1;jettySize=auto;html=1;entryX=0.17;entryY=1.03;entryDx=0;entryDy=0;entryPerimeter=0;" edge="1" parent="1" source="7T2O_6Qfva8UN1nSJMez-64" target="7T2O_6Qfva8UN1nSJMez-8">
          <mxGeometry relative="1" as="geometry" />
        </mxCell>
        <mxCell id="7T2O_6Qfva8UN1nSJMez-64" value="Vehicle Controller" style="rhombus;whiteSpace=wrap;html=1;" vertex="1" parent="1">
          <mxGeometry x="368" y="420" width="80" height="80" as="geometry" />
        </mxCell>
      </root>
    </mxGraphModel>
  </diagram>
</mxfile>
